<svg xmlns="http://www.w3.org/2000/svg" viewBox="0 0 512 512" style="max-width:100%" height="100%"><path d="M436.27 39.8H304.8C300.15 17.13 280.04 0 256 0s-44.16 17.12-48.8 39.8H75.73a26.82 26.82 0 0 0-26.8 26.8v284.56a26.82 26.82 0 0 0 26.8 26.79h124.9l-40.57 120.87a10 10 0 0 0 18.96 6.36l42.7-127.23h68.55l42.7 127.23a10 10 0 0 0 18.97-6.37l-40.57-120.86h124.9a26.82 26.82 0 0 0 26.8-26.79V66.6a26.82 26.82 0 0 0-26.8-26.8zM256 20a29.86 29.86 0 0 1 28.08 19.8h-56.16A29.86 29.86 0 0 1 256 20zm187.06 331.16a6.8 6.8 0 0 1-6.79 6.79h-26.12V215.39a10 10 0 0 0-20 0v142.56H359.4V245.98a10 10 0 0 0-20 0v111.97h-28.08v-79.26a10 10 0 0 0-20 0v79.26H266V253.28a10 10 0 0 0-20 0v104.67h-29.04v-55.02a10 10 0 0 0-20 0v55.02h-23.22v-50.99a10 10 0 0 0-20 0v50.99h-26.78V318.6a10 10 0 0 0-20 0v39.34H75.72a6.8 6.8 0 0 1-6.79-6.79V66.6a6.8 6.8 0 0 1 6.8-6.8H436.26a6.8 6.8 0 0 1 6.8 6.8v284.56z" style="" fill="currentColor"></path><path d="M410.1 106.88c0-.13-.03-.26-.05-.4-.03-.19-.05-.38-.09-.56l-.11-.47-.13-.48c-.04-.16-.1-.3-.16-.45-.05-.16-.1-.32-.17-.48l-.19-.4c-.07-.16-.14-.33-.23-.48l-.22-.38-.28-.46-.29-.4-.3-.39a9.9 9.9 0 0 0-.56-.62l-.1-.1-.1-.1c-.2-.2-.4-.39-.62-.57l-.38-.28-.41-.3c-.14-.1-.3-.18-.44-.27l-.4-.23-.45-.22-.44-.2-.43-.16-.5-.17c-.14-.05-.28-.08-.42-.11-.17-.05-.35-.1-.53-.13l-.47-.07-.5-.08-.8-.04h-43.38a10 10 0 0 0 0 20h19.06l-83.03 83.02-21.8-21.8a10 10 0 0 0-14.14 0l-72.16 72.17-21.54-21.55a10 10 0 0 0-14.14 0l-36.5 36.5a10 10 0 0 0 14.15 14.14l29.42-29.42 21.54 21.54a10 10 0 0 0 14.14 0l72.16-72.16 21.8 21.8a10 10 0 0 0 14.14 0l90.1-90.1v19.05a10 10 0 0 0 20 0v-43.19c0-.33-.01-.67-.04-1z" style="" fill="currentColor"></path><circle cx="119.78" cy="107.87" r="10" style="" fill="currentColor"></circle><circle cx="119.78" cy="148.64" r="10" style="" fill="currentColor"></circle><circle cx="119.78" cy="189.41" r="10" style="" fill="currentColor"></circle></svg>
