<svg xmlns="http://www.w3.org/2000/svg" viewBox="0 0 512 512" style="max-width:100%" height="100%"><circle cx="441.64" cy="338.1" r="10" style="" fill="currentColor"></circle><circle cx="60.97" cy="338.1" r="10" style="" fill="currentColor"></circle><path d="M494.3 492h-85.88l-.52-245.78a10 10 0 0 0-10-9.98h-.03a10 10 0 0 0-9.98 10.03l.53 245.73h-29.05l-.26-109.35a10 10 0 0 0-10-9.98h-.02a10 10 0 0 0-9.98 10.02l.26 109.3h-24.29V359.65c28.31-2.5 50.57-25.77 50.57-54.02V208.7c0-15.42-3.27-30.52-9.52-44.48a82.8 82.8 0 0 1 52.28 23.02c15.47 14.94 24.02 34.82 24.07 55.97l.18 56.91a10 10 0 0 0 10 9.97h.03a10 10 0 0 0 9.97-10.03l-.18-56.9c-.06-26.6-10.77-51.57-30.18-70.31a102.23 102.23 0 0 0-38.6-23.44 52.77 52.77 0 0 0 16.48-38.43 52.98 52.98 0 0 0-52.92-52.8h-.12a53.09 53.09 0 0 0-24.4 6 10 10 0 1 0 9.28 17.73 32.95 32.95 0 0 1 48.16 29.12A32.95 32.95 0 0 1 347.33 144c-.43 0-.85.04-1.27.1l-1.6.06a113.82 113.82 0 0 0-57.84-41.4 58.54 58.54 0 0 0 20.04-44.1A58.75 58.75 0 0 0 247.98 0a58.74 58.74 0 0 0-58.68 58.67 58.58 58.58 0 0 0 21.85 45.64 113.71 113.71 0 0 0-53.3 39.8 105.94 105.94 0 0 0-6.97-.08c-.18 0-.36-.03-.55-.03a32.95 32.95 0 0 1-32.91-32.91 32.95 32.95 0 0 1 48.6-28.94 10 10 0 0 0 9.56-17.58 53 53 0 0 0-25.25-6.4 52.98 52.98 0 0 0-52.92 52.92 52.8 52.8 0 0 0 18.18 39.86c-37.82 14.58-64.63 50.52-64.63 92.42v56.72a10 10 0 1 0 20 0v-56.72c0-41.48 33.12-75.6 75.15-79.05-6.23 13.92-9.48 29-9.48 44.38v96.92c0 28.8 23.14 52.43 52.25 54.14V492h-27.25V382.67a10 10 0 1 0-20 0V492h-24.59V246.35a10 10 0 1 0-20 0V492H17.7a10 10 0 1 0 0 20h476.6a10 10 0 1 0 0-20zm-285-433.32c0-21.33 17.36-38.68 38.68-38.68s38.67 17.35 38.67 38.68-17.35 38.67-38.67 38.67a38.72 38.72 0 0 1-38.67-38.67zm95.78 143.39a10 10 0 0 0-10 10V492h-35.62V352.85a10 10 0 1 0-20 0V492h-30.57V212.07a10 10 0 1 0-20 0V339.7c-18.08-1.64-32.26-16.3-32.26-34.09V208.7a88.83 88.83 0 0 1 14.56-48.73c17.45-26.69 47.34-42.62 79.95-42.62 32.66 0 62.58 15.97 80.02 42.73a88.84 88.84 0 0 1 14.49 48.62v96.92c0 17.23-13.31 31.53-30.57 33.9V212.07a10 10 0 0 0-10-10z" style="" fill="currentColor"></path></svg>
