career<svg xmlns="http://www.w3.org/2000/svg" viewBox="0 0 512 512" style="max-width:100%" height="100%"><path d="M436.27 39.8H304.8C300.15 17.13 280.04 0 256 0s-44.16 17.12-48.8 39.8H75.73a26.82 26.82 0 0 0-26.8 26.8v284.56a26.82 26.82 0 0 0 26.8 26.79h124.9l-40.57 120.87a10 10 0 0 0 18.96 6.36l42.7-127.23h68.55l42.7 127.23a10 10 0 0 0 18.97-6.37l-40.57-120.86h124.9a26.82 26.82 0 0 0 26.8-26.79V66.6a26.82 26.82 0 0 0-26.8-26.8zM256 20a29.86 29.86 0 0 1 28.08 19.8h-56.16A29.86 29.86 0 0 1 256 20zm187.06 331.16a6.8 6.8 0 0 1-6.79 6.79h-26.12V215.39a10 10 0 0 0-20 0v142.56H359.4V245.98a10 10 0 0 0-20 0v111.97h-28.08v-79.26a10 10 0 0 0-20 0v79.26H266V253.28a10 10 0 0 0-20 0v104.67h-29.04v-55.02a10 10 0 0 0-20 0v55.02h-23.22v-50.99a10 10 0 0 0-20 0v50.99h-26.78V318.6a10 10 0 0 0-20 0v39.34H75.72a6.8 6.8 0 0 1-6.79-6.79V66.6a6.8 6.8 0 0 1 6.8-6.8H436.26a6.8 6.8 0 0 1 6.8 6.8v284.56z" style="" fill="currentColor"></path><path d="M410.1 106.88c0-.13-.03-.26-.05-.4-.03-.19-.05-.38-.09-.56l-.11-.47-.13-.48c-.04-.16-.1-.3-.16-.45-.05-.16-.1-.32-.17-.48l-.19-.4c-.07-.16-.14-.33-.23-.48l-.22-.38-.28-.46-.29-.4-.3-.39a9.9 9.9 0 0 0-.56-.62l-.1-.1-.1-.1c-.2-.2-.4-.39-.62-.57l-.38-.28-.41-.3c-.14-.1-.3-.18-.44-.27l-.4-.23-.45-.22-.44-.2-.43-.16-.5-.17c-.14-.05-.28-.08-.42-.11-.17-.05-.35-.1-.53-.13l-.47-.07-.5-.08-.8-.04h-43.38a10 10 0 0 0 0 20h19.06l-83.03 83.02-21.8-21.8a10 10 0 0 0-14.14 0l-72.16 72.17-21.54-21.55a10 10 0 0 0-14.14 0l-36.5 36.5a10 10 0 0 0 14.15 14.14l29.42-29.42 21.54 21.54a10 10 0 0 0 14.14 0l72.16-72.16 21.8 21.8a10 10 0 0 0 14.14 0l90.1-90.1v19.05a10 10 0 0 0 20 0v-43.19c0-.33-.01-.67-.04-1z" style="" fill="currentColor"></path><circle cx="119.78" cy="107.87" r="10" style="" fill="currentColor"></circle><circle cx="119.78" cy="148.64" r="10" style="" fill="currentColor"></circle><circle cx="119.78" cy="189.41" r="10" style="" fill="currentColor"></circle></svg>

relocation<svg xmlns="http://www.w3.org/2000/svg" viewBox="0 0 512 512" style="max-width:100%" height="100%"><circle cx="501.98" cy="109.28" r="10.02" style="" fill="currentColor"></circle><path d="M305.55 410.68h-38.8a10.02 10.02 0 0 0 0 20.05h38.8c5.97 0 10.83 4.86 10.83 10.83s-4.86 10.83-10.83 10.83H201.1a52.52 52.52 0 0 1-40.48-18.98l-24.97-30.02a72.48 72.48 0 0 0-53.77-26.15v-59h36.8a69.33 69.33 0 0 1 48.38 19.54l53.9 52.03a9.85 9.85 0 0 1 .4 13.69 9.82 9.82 0 0 1-13.82.58l-42.32-38.8a10.02 10.02 0 0 0-13.55 14.78l42.32 38.8a29.72 29.72 0 0 0 20.15 7.81c8.05 0 16.08-3.22 21.94-9.57a30.02 30.02 0 0 0-1.2-41.72L181 323.35a89.28 89.28 0 0 0-62.3-25.16h-38.6a24.84 24.84 0 0 0-23-15.54H10.02A10.02 10.02 0 0 0 0 292.68v73.1a10.02 10.02 0 0 0 20.05 0V302.7h37.04a4.77 4.77 0 0 1 4.76 4.76v80.14a4.77 4.77 0 0 1-4.76 4.76H46.7a10.02 10.02 0 0 0 0 20.05H57.1a24.84 24.84 0 0 0 22.85-15.17 52.51 52.51 0 0 1 40.3 18.97l24.98 30.02a72.5 72.5 0 0 0 55.9 26.2h104.43a30.91 30.91 0 0 0 30.88-30.87 30.91 30.91 0 0 0-30.88-30.88zM368.38 341.25a10.02 10.02 0 0 0-14.28.88 10 10 0 0 0 7.51 16.64c2.76 0 5.51-1.13 7.5-3.35l-7.44-6.72 7.45 6.7a10.02 10.02 0 0 0-.74-14.15zM347.44 363.05a10.06 10.06 0 0 0-14.04-2.18 10.02 10.02 0 0 0 11.79 16.21l.08-.06a9.98 9.98 0 0 0 2.17-13.97zM322.42 379.81a10.03 10.03 0 0 0-13.19-5.04 10.02 10.02 0 1 0 8.19 18.3 10.02 10.02 0 0 0 5-13.25z" style="" fill="currentColor"></path><path d="M294.4 390.98a10.03 10.03 0 0 0-11.8-7.78 10.02 10.02 0 1 0 4.05 19.64 10.02 10.02 0 0 0 7.75-11.86zM406.8 235.04l-9.83 1.9 9.83-1.92a10.02 10.02 0 1 0-19.67 3.82l.04.24a10.06 10.06 0 0 0 11.87 7.8 10 10 0 0 0 7.77-11.84zM397.65 257.01a10.02 10.02 0 0 0-10.86 9.1l-.02.25a10.05 10.05 0 0 0 10 10.79 10 10 0 0 0 9.98-9.26l-9.98-.9 9.98.89a10.02 10.02 0 0 0-9.1-10.87zM384.12 315.54a10.07 10.07 0 0 0-13.69 3.8 10.02 10.02 0 1 0 17.48 9.82 9.98 9.98 0 0 0-3.8-13.62zM393.99 286.97c-5.3-1.61-10.9 1.4-12.5 6.7a10.02 10.02 0 1 0 19.13 5.97l.06-.18a10.02 10.02 0 0 0-6.7-12.5zM129.65 285.48a10.03 10.03 0 0 0-19.56 4.4l.07.3a10.01 10.01 0 0 0 19.49-4.7zM131.87 189.99a10.02 10.02 0 0 0-13.26 5l-.11.27a10.01 10.01 0 0 0 18.41 7.92 10.02 10.02 0 0 0-5.04-13.2zM120.82 218.05a10.03 10.03 0 0 0-11.86 7.76l-.05.24a10.04 10.04 0 0 0 9.85 11.95 10 10 0 0 0 9.82-8.1 10.02 10.02 0 0 0-7.76-11.85zM148.5 164.85a10.04 10.04 0 0 0-13.98 2.28l8.1 5.92-8.11-5.9a10.02 10.02 0 0 0 16.2 11.8l.12-.15a10 10 0 0 0-2.32-13.95zM170.25 143.88a10.02 10.02 0 0 0-14.15-.74l-.08.07c-4.11 3.7-4.4 10-.7 14.12a10.06 10.06 0 0 0 14.19.7 10.02 10.02 0 0 0 .74-14.15zM195.96 128.1a10.02 10.02 0 0 0-13.84-3.75 10.03 10.03 0 0 0 9.99 17.38c4.83-2.7 6.55-8.8 3.85-13.64zM224.39 117.9a10 10 0 0 0-12.6-6.47l2.94 9.59-2.95-9.58a10.02 10.02 0 0 0 5.9 19.16l.22-.08a10.05 10.05 0 0 0 6.49-12.62zM254.34 114.3a10.02 10.02 0 0 0-10.86-9.1h-.1a9.98 9.98 0 0 0-9.05 10.87 10.06 10.06 0 0 0 10.91 9.1 10.02 10.02 0 0 0 9.1-10.87zM126.15 257.55a10.04 10.04 0 0 0-10.32-9.76 10 10 0 0 0-9.72 10.28l10.02-.13-10.02.15a10.02 10.02 0 0 0 10.02 9.87h.15a10.02 10.02 0 0 0 9.87-10.17v-.24zM266.31 245.23H245.7c-8.4 0-15.24-6.83-15.24-15.24v-12c0-8.4 6.83-15.23 15.24-15.23h22.85c7.17 0 13.01 5.84 13.01 13a10.02 10.02 0 0 0 20.05 0 33.1 33.1 0 0 0-33.06-33.05h-2.52V167.8a10.02 10.02 0 0 0-20.04 0v14.92h-.3A35.32 35.32 0 0 0 210.4 218v12a35.32 35.32 0 0 0 35.29 35.28H266.3c8.4 0 15.24 6.83 15.24 15.23v12c0 8.4-6.83 15.24-15.24 15.24h-22.85c-7.18 0-13.01-5.84-13.01-13.01a10.02 10.02 0 0 0-20.05 0 33.1 33.1 0 0 0 33.06 33.05h2.52v14.92a10.02 10.02 0 0 0 20.04 0V327.8h.3a35.32 35.32 0 0 0 35.28-35.28v-12a35.32 35.32 0 0 0-35.29-35.28z" style="" fill="currentColor"></path><path d="M501.98 131.94a10.02 10.02 0 0 0-10.03 10.03v67h-37.04a4.77 4.77 0 0 1-4.76-4.77v-80.14a4.77 4.77 0 0 1 4.76-4.76h9.65a10.02 10.02 0 0 0 0-20.04h-9.65a24.84 24.84 0 0 0-22.99 15.5 52.5 52.5 0 0 1-40.17-18.97l-24.97-30.02a72.5 72.5 0 0 0-55.9-26.2H206.45a30.91 30.91 0 0 0-30.88 30.87 30.91 30.91 0 0 0 30.88 30.88h42.7a10.02 10.02 0 0 0 0-20.05h-42.7a10.85 10.85 0 0 1-10.83-10.83c0-5.97 4.86-10.83 10.83-10.83H310.9c15.69 0 30.44 6.92 40.48 18.98l24.97 30.02a72.47 72.47 0 0 0 53.77 26.14v59.02h-36.8a69.33 69.33 0 0 1-48.38-19.55l-53.9-52.03a9.86 9.86 0 0 1-.4-13.7 9.82 9.82 0 0 1 13.82-.57l42.32 38.8a10.02 10.02 0 1 0 13.55-14.78L318 93.14a29.9 29.9 0 0 0-42.1 1.76 30.02 30.02 0 0 0 1.2 41.72l53.91 52.03a89.28 89.28 0 0 0 62.3 25.16h38.74a24.84 24.84 0 0 0 22.86 15.2h47.07c5.53 0 10.02-4.5 10.02-10.03v-77.01c0-5.54-4.49-10.03-10.02-10.03z" style="" fill="currentColor"></path><circle cx="10.02" cy="402.38" r="10.02" style="" fill="currentColor"></circle></svg>

experts<svg xmlns="http://www.w3.org/2000/svg" viewBox="0 0 512 512" style="max-width:100%" height="100%"><circle cx="441.64" cy="338.1" r="10" style="" fill="currentColor"></circle><circle cx="60.97" cy="338.1" r="10" style="" fill="currentColor"></circle><path d="M494.3 492h-85.88l-.52-245.78a10 10 0 0 0-10-9.98h-.03a10 10 0 0 0-9.98 10.03l.53 245.73h-29.05l-.26-109.35a10 10 0 0 0-10-9.98h-.02a10 10 0 0 0-9.98 10.02l.26 109.3h-24.29V359.65c28.31-2.5 50.57-25.77 50.57-54.02V208.7c0-15.42-3.27-30.52-9.52-44.48a82.8 82.8 0 0 1 52.28 23.02c15.47 14.94 24.02 34.82 24.07 55.97l.18 56.91a10 10 0 0 0 10 9.97h.03a10 10 0 0 0 9.97-10.03l-.18-56.9c-.06-26.6-10.77-51.57-30.18-70.31a102.23 102.23 0 0 0-38.6-23.44 52.77 52.77 0 0 0 16.48-38.43 52.98 52.98 0 0 0-52.92-52.8h-.12a53.09 53.09 0 0 0-24.4 6 10 10 0 1 0 9.28 17.73 32.95 32.95 0 0 1 48.16 29.12A32.95 32.95 0 0 1 347.33 144c-.43 0-.85.04-1.27.1l-1.6.06a113.82 113.82 0 0 0-57.84-41.4 58.54 58.54 0 0 0 20.04-44.1A58.75 58.75 0 0 0 247.98 0a58.74 58.74 0 0 0-58.68 58.67 58.58 58.58 0 0 0 21.85 45.64 113.71 113.71 0 0 0-53.3 39.8 105.94 105.94 0 0 0-6.97-.08c-.18 0-.36-.03-.55-.03a32.95 32.95 0 0 1-32.91-32.91 32.95 32.95 0 0 1 48.6-28.94 10 10 0 0 0 9.56-17.58 53 53 0 0 0-25.25-6.4 52.98 52.98 0 0 0-52.92 52.92 52.8 52.8 0 0 0 18.18 39.86c-37.82 14.58-64.63 50.52-64.63 92.42v56.72a10 10 0 1 0 20 0v-56.72c0-41.48 33.12-75.6 75.15-79.05-6.23 13.92-9.48 29-9.48 44.38v96.92c0 28.8 23.14 52.43 52.25 54.14V492h-27.25V382.67a10 10 0 1 0-20 0V492h-24.59V246.35a10 10 0 1 0-20 0V492H17.7a10 10 0 1 0 0 20h476.6a10 10 0 1 0 0-20zm-285-433.32c0-21.33 17.36-38.68 38.68-38.68s38.67 17.35 38.67 38.68-17.35 38.67-38.67 38.67a38.72 38.72 0 0 1-38.67-38.67zm95.78 143.39a10 10 0 0 0-10 10V492h-35.62V352.85a10 10 0 1 0-20 0V492h-30.57V212.07a10 10 0 1 0-20 0V339.7c-18.08-1.64-32.26-16.3-32.26-34.09V208.7a88.83 88.83 0 0 1 14.56-48.73c17.45-26.69 47.34-42.62 79.95-42.62 32.66 0 62.58 15.97 80.02 42.73a88.84 88.84 0 0 1 14.49 48.62v96.92c0 17.23-13.31 31.53-30.57 33.9V212.07a10 10 0 0 0-10-10z" style="" fill="currentColor"></path></svg>

fancy-cross<svg class="svg_3d7" viewBox="0 0 34 34" version="1.1" xmlns="http://www.w3.org/2000/svg"><g stroke="none" stroke-width="1" fill="none" fill-rule="evenodd"><g transform="translate(-298.000000, -149.000000)" fill="#D9534C"><g transform="translate(44.000000, 136.000000)"><g transform="translate(7.000000, 13.000000)"><g transform="translate(247.000000, 0.000000)"><path d="M16.7908408,21.3903124 L17.8543746,22.4173551 L8.63769372,31.634036 C6.90580338,33.3659263 4.09785434,33.3659263 2.36596401,31.634036 C0.634073669,29.9021457 0.634073669,27.0941966 2.36596401,25.3623063 L10.6999804,17.0282899 C10.9886287,16.7396415 11.4566203,16.7396415 11.7452686,17.0282899 C12.033917,17.3169383 12.033917,17.7849298 11.7452686,18.0735782 L3.41125229,26.4075946 C2.25665873,27.5621881 2.25665873,29.4341541 3.41125229,30.5887477 C4.56584585,31.7433413 6.43781187,31.7433413 7.59240543,30.5887477 L16.7908408,21.3903124 Z M21.6688687,16.5122844 L30.5887477,7.59240543 C31.7433413,6.43781187 31.7433413,4.56584585 30.5887477,3.41125229 C29.4341541,2.25665873 27.5621881,2.25665873 26.4075946,3.41125229 L21.3007062,8.51814066 C21.0120578,8.80678905 20.5440663,8.80678905 20.2554179,8.51814066 C19.9667695,8.22949227 19.9667695,7.76150076 20.2554179,7.47285237 L25.3623063,2.36596401 C27.0941966,0.634073669 29.9021457,0.634073669 31.634036,2.36596401 C33.3659263,4.09785434 33.3659263,6.90580338 31.634036,8.63769372 L22.7324026,17.5393271 L21.6688687,16.5122844 Z" id="Combined-Shape" fill-rule="nonzero"></path><path d="M13.0289604,30.6069977 C13.0289604,31.3998259 13.0289604,32.192654 13.0289604,32.9854821 L13.0289604,32.9854821 C13.0289604,35.0265345 14.6835602,36.6811343 16.7246126,36.6811343 L16.7246126,36.6811343 C18.7656649,36.6811343 20.4202647,35.0265345 20.4202647,32.9854821 L20.4202647,0.463742998 C20.4202647,-1.57730934 18.7656649,-3.23190918 16.7246126,-3.23190918 L16.7246126,-3.23190918 C14.6835602,-3.23190918 13.0289604,-1.57730934 13.0289604,0.463742998 L13.0289604,25.4558746 C13.0289604,26.8652445 13.0289604,28.5822856 13.0289604,30.6069977 Z" id="Path-2-Copy-2" stroke="#D9534C" stroke-width="1.47826087" fill-opacity="0.36" stroke-linecap="round" transform="translate(16.724613, 16.724613) rotate(-225.000000) translate(-16.724613, -16.724613) "></path></g></g></g></g></g></svg>

facebook<svg class="noFill_1L9 svgIcon_2Cq" viewBox="0 0 32 32"><g stroke="none" stroke-width="1" fill="none" fill-rule="evenodd"><path d="M16,32 C7.163444,32 0,24.836556 0,16 C0,7.163444 7.163444,0 16,0 C24.836556,0 32,7.163444 32,16 C32,24.836556 24.836556,32 16,32 Z M13.6383065,25 L16.9133212,25 L16.9133212,16.0044 L19.3701815,16.0044 L19.8560792,13.1936 L16.9133212,13.1936 L16.9133212,11.1568001 C16.9133212,10.5002 17.3378823,9.81079996 17.944655,9.81079996 L19.6171262,9.81079996 L19.6171262,7 L17.567445,7 L17.567445,7.0126 C14.3603601,7.129 13.7014413,8.98640001 13.6443004,10.9374 L13.6383065,10.9374 L13.6383065,13.1936 L12,13.1936 L12,16.0044 L13.6383065,16.0044 L13.6383065,25 Z" class="outline_28N" fill-rule="nonzero"></path><path d="M13.6383065,25 L16.9133212,25 L16.9133212,16.0044 L19.3701815,16.0044 L19.8560792,13.1936 L16.9133212,13.1936 L16.9133212,11.1568001 C16.9133212,10.5002 17.3378823,9.81079996 17.944655,9.81079996 L19.6171262,9.81079996 L19.6171262,7 L17.567445,7 L17.567445,7.0126 C14.3603601,7.129 13.7014413,8.98640001 13.6443004,10.9374 L13.6383065,10.9374 L13.6383065,13.1936 L12,13.1936 L12,16.0044 L13.6383065,16.0044 L13.6383065,25 Z" class="logo_2cS" fill-rule="nonzero"></path><path d="M16,31 C24.2842712,31 31,24.2842712 31,16 C31,7.71572875 24.2842712,1 16,1 C7.71572875,1 1,7.71572875 1,16 C1,24.2842712 7.71572875,31 16,31 Z M16,32 C7.163444,32 0,24.836556 0,16 C0,7.163444 7.163444,0 16,0 C24.836556,0 32,7.163444 32,16 C32,24.836556 24.836556,32 16,32 Z" class="border_3Tk" fill-rule="nonzero"></path></g></svg>

twitter<svg class="noFill_1L9 svgIcon_2Cq" viewBox="0 0 32 32"><g stroke="none" stroke-width="1" fill="none" fill-rule="evenodd"><path d="M16,32 C7.163444,32 0,24.836556 0,16 C0,7.163444 7.163444,0 16,0 C24.836556,0 32,7.163444 32,16 C32,24.836556 24.836556,32 16,32 Z M23.5445333,10.2885333 C23.0796444,10.5863111 22.0122666,11.0190222 21.4858666,11.0190222 L21.4858666,11.0199111 C20.8848,10.392 20.0385777,10 19.1000888,10 C17.2773333,10 15.7992889,11.4780444 15.7992889,13.3000888 C15.7992889,13.5532445 15.8286222,13.8001778 15.8828444,14.0369778 L15.8823111,14.0369778 C13.4097777,13.9720888 10.7056,12.7328 9.07768889,10.6117333 C8.0768,12.3441778 8.94293333,14.2709334 10.0787556,14.9729778 C9.68995555,15.0023111 8.97422222,14.9281778 8.63733333,14.5994666 C8.61475555,15.7493334 9.16764444,17.2728889 11.1836444,17.8256 C10.7953778,18.0344889 10.1080889,17.9745778 9.80924444,17.9301333 C9.91413329,18.9008 11.2734222,20.1697778 12.7598222,20.1697778 C12.2300445,20.7825777 10.2368,21.8940444 8,21.5404445 C9.51911111,22.4647111 11.2896,22.9999999 13.1635555,22.9999999 C18.4888889,22.9999999 22.6245334,18.6840889 22.4019555,13.3598222 C22.4010666,13.3539556 22.4010666,13.3480889 22.4005334,13.3416889 C22.4010666,13.328 22.4019555,13.3143111 22.4019555,13.3000888 C22.4019555,13.2835556 22.4005334,13.2679111 22.4,13.2519111 C22.8847999,12.9203555 23.5352888,12.3338667 24,11.5619556 C23.7304889,11.7104 22.9219555,12.0076445 22.1696,12.0814222 C22.6524444,11.8208 23.3678222,10.9672889 23.5445333,10.2885333 Z" class="outline_28N" fill-rule="nonzero"></path><path d="M23.5445333,10.2885333 C23.0796444,10.5863111 22.0122666,11.0190222 21.4858666,11.0190222 L21.4858666,11.0199111 C20.8848,10.392 20.0385777,10 19.1000888,10 C17.2773333,10 15.7992889,11.4780444 15.7992889,13.3000888 C15.7992889,13.5532445 15.8286222,13.8001778 15.8828444,14.0369778 L15.8823111,14.0369778 C13.4097777,13.9720888 10.7056,12.7328 9.07768889,10.6117333 C8.0768,12.3441778 8.94293333,14.2709334 10.0787556,14.9729778 C9.68995555,15.0023111 8.97422222,14.9281778 8.63733333,14.5994666 C8.61475555,15.7493334 9.16764444,17.2728889 11.1836444,17.8256 C10.7953778,18.0344889 10.1080889,17.9745778 9.80924444,17.9301333 C9.91413329,18.9008 11.2734222,20.1697778 12.7598222,20.1697778 C12.2300445,20.7825777 10.2368,21.8940444 8,21.5404445 C9.51911111,22.4647111 11.2896,22.9999999 13.1635555,22.9999999 C18.4888889,22.9999999 22.6245334,18.6840889 22.4019555,13.3598222 C22.4010666,13.3539556 22.4010666,13.3480889 22.4005334,13.3416889 C22.4010666,13.328 22.4019555,13.3143111 22.4019555,13.3000888 C22.4019555,13.2835556 22.4005334,13.2679111 22.4,13.2519111 C22.8847999,12.9203555 23.5352888,12.3338667 24,11.5619556 C23.7304889,11.7104 22.9219555,12.0076445 22.1696,12.0814222 C22.6524444,11.8208 23.3678222,10.9672889 23.5445333,10.2885333" class="logo_2cS" fill-rule="nonzero"></path><path d="M16,31 C24.2842712,31 31,24.2842712 31,16 C31,7.71572875 24.2842712,1 16,1 C7.71572875,1 1,7.71572875 1,16 C1,24.2842712 7.71572875,31 16,31 Z M16,32 C7.163444,32 0,24.836556 0,16 C0,7.163444 7.163444,0 16,0 C24.836556,0 32,7.163444 32,16 C32,24.836556 24.836556,32 16,32 Z" class="border_3Tk" fill-rule="nonzero"></path></g></svg>

insta<svg class="noFill_1L9 svgIcon_2Cq" viewBox="0 0 32 32"><g id="Artboard-Copy-27" stroke="none" stroke-width="1" fill="none" fill-rule="evenodd"><path d="M16,32 C7.163444,32 0,24.836556 0,16 C0,7.163444 7.163444,0 16,0 C24.836556,0 32,7.163444 32,16 C32,24.836556 24.836556,32 16,32 Z M12.7045454,8 C10.1221593,8 8,10.1193185 8,12.7045454 L8,19.2954545 C8,21.8778407 10.1193185,24 12.7045454,24 L19.2954545,24 C21.8778407,24 24,21.8806822 24,19.2954545 L24,12.7045454 C24,10.1221593 21.8806822,8 19.2954545,8 L12.7045454,8 Z M12.7045454,9.45454545 L19.2954545,9.45454545 C21.0937498,9.45454545 22.5454545,10.9062502 22.5454545,12.7045454 L22.5454545,19.2954545 C22.5454545,21.0937498 21.0937498,22.5454545 19.2954545,22.5454545 L12.7045454,22.5454545 C10.9062502,22.5454545 9.45454545,21.0937498 9.45454545,19.2954545 L9.45454545,12.7045454 C9.45454545,10.9062502 10.9062502,9.45454545 12.7045454,9.45454545 Z M20.2954545,11.0454545 C19.9289774,11.0454545 19.6363636,11.3380684 19.6363636,11.7045454 C19.6363636,12.0710225 19.9289774,12.3636364 20.2954545,12.3636364 C20.6619316,12.3636364 20.9545454,12.0710225 20.9545454,11.7045454 C20.9545454,11.3380684 20.6619316,11.0454545 20.2954545,11.0454545 Z M16,11.6363636 C13.599432,11.6363636 11.6363636,13.599432 11.6363636,16 C11.6363636,18.400568 13.599432,20.3636364 16,20.3636364 C18.400568,20.3636364 20.3636364,18.400568 20.3636364,16 C20.3636364,13.599432 18.400568,11.6363636 16,11.6363636 Z M16,13.0909091 C17.6164771,13.0909091 18.9090909,14.3835229 18.9090909,16 C18.9090909,17.6164771 17.6164771,18.9090909 16,18.9090909 C14.3835229,18.9090909 13.0909091,17.6164771 13.0909091,16 C13.0909091,14.3835229 14.3835229,13.0909091 16,13.0909091 Z" class="outline_28N" fill-rule="nonzero"></path><path d="M12.7045454,8 C10.1221593,8 8,10.1193185 8,12.7045454 L8,19.2954545 C8,21.8778407 10.1193185,24 12.7045454,24 L19.2954545,24 C21.8778407,24 24,21.8806822 24,19.2954545 L24,12.7045454 C24,10.1221593 21.8806822,8 19.2954545,8 L12.7045454,8 Z M12.7045454,9.45454545 L19.2954545,9.45454545 C21.0937498,9.45454545 22.5454545,10.9062502 22.5454545,12.7045454 L22.5454545,19.2954545 C22.5454545,21.0937498 21.0937498,22.5454545 19.2954545,22.5454545 L12.7045454,22.5454545 C10.9062502,22.5454545 9.45454545,21.0937498 9.45454545,19.2954545 L9.45454545,12.7045454 C9.45454545,10.9062502 10.9062502,9.45454545 12.7045454,9.45454545 Z M20.2954545,11.0454545 C19.9289774,11.0454545 19.6363636,11.3380684 19.6363636,11.7045454 C19.6363636,12.0710225 19.9289774,12.3636364 20.2954545,12.3636364 C20.6619316,12.3636364 20.9545454,12.0710225 20.9545454,11.7045454 C20.9545454,11.3380684 20.6619316,11.0454545 20.2954545,11.0454545 Z M16,11.6363636 C13.599432,11.6363636 11.6363636,13.599432 11.6363636,16 C11.6363636,18.400568 13.599432,20.3636364 16,20.3636364 C18.400568,20.3636364 20.3636364,18.400568 20.3636364,16 C20.3636364,13.599432 18.400568,11.6363636 16,11.6363636 Z M16,13.0909091 C17.6164771,13.0909091 18.9090909,14.3835229 18.9090909,16 C18.9090909,17.6164771 17.6164771,18.9090909 16,18.9090909 C14.3835229,18.9090909 13.0909091,17.6164771 13.0909091,16 C13.0909091,14.3835229 14.3835229,13.0909091 16,13.0909091 Z" class="logo_2cS" fill-rule="nonzero"></path><path d="M16,31 C24.2842712,31 31,24.2842712 31,16 C31,7.71572875 24.2842712,1 16,1 C7.71572875,1 1,7.71572875 1,16 C1,24.2842712 7.71572875,31 16,31 Z M16,32 C7.163444,32 0,24.836556 0,16 C0,7.163444 7.163444,0 16,0 C24.836556,0 32,7.163444 32,16 C32,24.836556 24.836556,32 16,32 Z" class="border_3Tk" fill-rule="nonzero"></path></g></svg>
