<svg xmlns="http://www.w3.org/2000/svg" viewBox="0 0 512 512" style="max-width:100%" height="100%"><circle cx="501.98" cy="109.28" r="10.02" style="" fill="currentColor"></circle><path d="M305.55 410.68h-38.8a10.02 10.02 0 0 0 0 20.05h38.8c5.97 0 10.83 4.86 10.83 10.83s-4.86 10.83-10.83 10.83H201.1a52.52 52.52 0 0 1-40.48-18.98l-24.97-30.02a72.48 72.48 0 0 0-53.77-26.15v-59h36.8a69.33 69.33 0 0 1 48.38 19.54l53.9 52.03a9.85 9.85 0 0 1 .4 13.69 9.82 9.82 0 0 1-13.82.58l-42.32-38.8a10.02 10.02 0 0 0-13.55 14.78l42.32 38.8a29.72 29.72 0 0 0 20.15 7.81c8.05 0 16.08-3.22 21.94-9.57a30.02 30.02 0 0 0-1.2-41.72L181 323.35a89.28 89.28 0 0 0-62.3-25.16h-38.6a24.84 24.84 0 0 0-23-15.54H10.02A10.02 10.02 0 0 0 0 292.68v73.1a10.02 10.02 0 0 0 20.05 0V302.7h37.04a4.77 4.77 0 0 1 4.76 4.76v80.14a4.77 4.77 0 0 1-4.76 4.76H46.7a10.02 10.02 0 0 0 0 20.05H57.1a24.84 24.84 0 0 0 22.85-15.17 52.51 52.51 0 0 1 40.3 18.97l24.98 30.02a72.5 72.5 0 0 0 55.9 26.2h104.43a30.91 30.91 0 0 0 30.88-30.87 30.91 30.91 0 0 0-30.88-30.88zM368.38 341.25a10.02 10.02 0 0 0-14.28.88 10 10 0 0 0 7.51 16.64c2.76 0 5.51-1.13 7.5-3.35l-7.44-6.72 7.45 6.7a10.02 10.02 0 0 0-.74-14.15zM347.44 363.05a10.06 10.06 0 0 0-14.04-2.18 10.02 10.02 0 0 0 11.79 16.21l.08-.06a9.98 9.98 0 0 0 2.17-13.97zM322.42 379.81a10.03 10.03 0 0 0-13.19-5.04 10.02 10.02 0 1 0 8.19 18.3 10.02 10.02 0 0 0 5-13.25z" style="" fill="currentColor"></path><path d="M294.4 390.98a10.03 10.03 0 0 0-11.8-7.78 10.02 10.02 0 1 0 4.05 19.64 10.02 10.02 0 0 0 7.75-11.86zM406.8 235.04l-9.83 1.9 9.83-1.92a10.02 10.02 0 1 0-19.67 3.82l.04.24a10.06 10.06 0 0 0 11.87 7.8 10 10 0 0 0 7.77-11.84zM397.65 257.01a10.02 10.02 0 0 0-10.86 9.1l-.02.25a10.05 10.05 0 0 0 10 10.79 10 10 0 0 0 9.98-9.26l-9.98-.9 9.98.89a10.02 10.02 0 0 0-9.1-10.87zM384.12 315.54a10.07 10.07 0 0 0-13.69 3.8 10.02 10.02 0 1 0 17.48 9.82 9.98 9.98 0 0 0-3.8-13.62zM393.99 286.97c-5.3-1.61-10.9 1.4-12.5 6.7a10.02 10.02 0 1 0 19.13 5.97l.06-.18a10.02 10.02 0 0 0-6.7-12.5zM129.65 285.48a10.03 10.03 0 0 0-19.56 4.4l.07.3a10.01 10.01 0 0 0 19.49-4.7zM131.87 189.99a10.02 10.02 0 0 0-13.26 5l-.11.27a10.01 10.01 0 0 0 18.41 7.92 10.02 10.02 0 0 0-5.04-13.2zM120.82 218.05a10.03 10.03 0 0 0-11.86 7.76l-.05.24a10.04 10.04 0 0 0 9.85 11.95 10 10 0 0 0 9.82-8.1 10.02 10.02 0 0 0-7.76-11.85zM148.5 164.85a10.04 10.04 0 0 0-13.98 2.28l8.1 5.92-8.11-5.9a10.02 10.02 0 0 0 16.2 11.8l.12-.15a10 10 0 0 0-2.32-13.95zM170.25 143.88a10.02 10.02 0 0 0-14.15-.74l-.08.07c-4.11 3.7-4.4 10-.7 14.12a10.06 10.06 0 0 0 14.19.7 10.02 10.02 0 0 0 .74-14.15zM195.96 128.1a10.02 10.02 0 0 0-13.84-3.75 10.03 10.03 0 0 0 9.99 17.38c4.83-2.7 6.55-8.8 3.85-13.64zM224.39 117.9a10 10 0 0 0-12.6-6.47l2.94 9.59-2.95-9.58a10.02 10.02 0 0 0 5.9 19.16l.22-.08a10.05 10.05 0 0 0 6.49-12.62zM254.34 114.3a10.02 10.02 0 0 0-10.86-9.1h-.1a9.98 9.98 0 0 0-9.05 10.87 10.06 10.06 0 0 0 10.91 9.1 10.02 10.02 0 0 0 9.1-10.87zM126.15 257.55a10.04 10.04 0 0 0-10.32-9.76 10 10 0 0 0-9.72 10.28l10.02-.13-10.02.15a10.02 10.02 0 0 0 10.02 9.87h.15a10.02 10.02 0 0 0 9.87-10.17v-.24zM266.31 245.23H245.7c-8.4 0-15.24-6.83-15.24-15.24v-12c0-8.4 6.83-15.23 15.24-15.23h22.85c7.17 0 13.01 5.84 13.01 13a10.02 10.02 0 0 0 20.05 0 33.1 33.1 0 0 0-33.06-33.05h-2.52V167.8a10.02 10.02 0 0 0-20.04 0v14.92h-.3A35.32 35.32 0 0 0 210.4 218v12a35.32 35.32 0 0 0 35.29 35.28H266.3c8.4 0 15.24 6.83 15.24 15.23v12c0 8.4-6.83 15.24-15.24 15.24h-22.85c-7.18 0-13.01-5.84-13.01-13.01a10.02 10.02 0 0 0-20.05 0 33.1 33.1 0 0 0 33.06 33.05h2.52v14.92a10.02 10.02 0 0 0 20.04 0V327.8h.3a35.32 35.32 0 0 0 35.28-35.28v-12a35.32 35.32 0 0 0-35.29-35.28z" style="" fill="currentColor"></path><path d="M501.98 131.94a10.02 10.02 0 0 0-10.03 10.03v67h-37.04a4.77 4.77 0 0 1-4.76-4.77v-80.14a4.77 4.77 0 0 1 4.76-4.76h9.65a10.02 10.02 0 0 0 0-20.04h-9.65a24.84 24.84 0 0 0-22.99 15.5 52.5 52.5 0 0 1-40.17-18.97l-24.97-30.02a72.5 72.5 0 0 0-55.9-26.2H206.45a30.91 30.91 0 0 0-30.88 30.87 30.91 30.91 0 0 0 30.88 30.88h42.7a10.02 10.02 0 0 0 0-20.05h-42.7a10.85 10.85 0 0 1-10.83-10.83c0-5.97 4.86-10.83 10.83-10.83H310.9c15.69 0 30.44 6.92 40.48 18.98l24.97 30.02a72.47 72.47 0 0 0 53.77 26.14v59.02h-36.8a69.33 69.33 0 0 1-48.38-19.55l-53.9-52.03a9.86 9.86 0 0 1-.4-13.7 9.82 9.82 0 0 1 13.82-.57l42.32 38.8a10.02 10.02 0 1 0 13.55-14.78L318 93.14a29.9 29.9 0 0 0-42.1 1.76 30.02 30.02 0 0 0 1.2 41.72l53.91 52.03a89.28 89.28 0 0 0 62.3 25.16h38.74a24.84 24.84 0 0 0 22.86 15.2h47.07c5.53 0 10.02-4.5 10.02-10.03v-77.01c0-5.54-4.49-10.03-10.02-10.03z" style="" fill="currentColor"></path><circle cx="10.02" cy="402.38" r="10.02" style="" fill="currentColor"></circle></svg>
